<svg xmlns="http://www.w3.org/2000/svg" viewBox="0 0 600 200">
  <defs>
    <linearGradient id="grad1" x1="0%" y1="0%" x2="100%" y2="0%">
      <stop offset="0%" style="stop-color:#00C853;stop-opacity:1" />
      <stop offset="50%" style="stop-color:#2979FF;stop-opacity:1" />
      <stop offset="100%" style="stop-color:#AA00FF;stop-opacity:1" />
    </linearGradient>
    <linearGradient id="grad2" x1="0%" y1="0%" x2="0%" y2="100%">
      <stop offset="0%" style="stop-color:#00E676;stop-opacity:1" />
      <stop offset="100%" style="stop-color:#00B0FF;stop-opacity:1" />
    </linearGradient>
    <filter id="shadow" x="-20%" y="-20%" width="140%" height="140%">
      <feDropShadow dx="2" dy="4" stdDeviation="4" flood-opacity="0.2"/>
    </filter>
  </defs>
  
  <!-- Background -->
  <rect width="600" height="200" fill="#ffffff"/>
  
  <!-- Hexagonal Network Pattern (representing ontology structure) -->
  <g transform="translate(50, 30)" opacity="0.9">
    <!-- Central hexagon -->
    <polygon points="60,20 90,35 90,65 60,80 30,65 30,35" 
             fill="none" stroke="url(#grad2)" stroke-width="3"/>
    
    <!-- Connected hexagons -->
    <polygon points="60,80 90,95 90,125 60,140 30,125 30,95" 
             fill="none" stroke="#2979FF" stroke-width="2" opacity="0.6"/>
    <polygon points="90,35 120,50 120,80 90,95 60,80 60,50" 
             fill="none" stroke="#AA00FF" stroke-width="2" opacity="0.6"/>
    <polygon points="30,35 60,50 60,80 30,95 0,80 0,50" 
             fill="none" stroke="#00C853" stroke-width="2" opacity="0.6"/>
    
    <!-- Neural nodes -->
    <circle cx="60" cy="50" r="12" fill="url(#grad2)" filter="url(#shadow)"/>
    <circle cx="30" cy="65" r="8" fill="#00C853"/>
    <circle cx="90" cy="65" r="8" fill="#2979FF"/>
    <circle cx="60" cy="95" r="8" fill="#AA00FF"/>
    <circle cx="60" cy="20" r="6" fill="#00E676"/>
    <circle cx="90" cy="35" r="6" fill="#2979FF"/>
    <circle cx="30" cy="35" r="6" fill="#00C853"/>
    
    <!-- Connecting neural lines -->
    <line x1="60" y1="50" x2="30" y2="65" stroke="#00C853" stroke-width="2" opacity="0.7"/>
    <line x1="60" y1="50" x2="90" y2="65" stroke="#2979FF" stroke-width="2" opacity="0.7"/>
    <line x1="60" y1="50" x2="60" y2="95" stroke="#AA00FF" stroke-width="2" opacity="0.7"/>
    <line x1="60" y1="50" x2="60" y2="20" stroke="#00E676" stroke-width="2" opacity="0.7"/>
    
    <!-- DNA-like helix inside central node -->
    <path d="M55 42 Q60 47 65 42" fill="none" stroke="white" stroke-width="2"/>
    <path d="M55 50 Q60 55 65 50" fill="none" stroke="white" stroke-width="2"/>
    <path d="M55 58 Q60 53 65 58" fill="none" stroke="white" stroke-width="2"/>
  </g>
  
  <!-- Main Title -->
  <text x="180" y="105" font-family="Segoe UI, Roboto, Arial, sans-serif" font-size="80" font-weight="700" fill="url(#grad1)" filter="url(#shadow)">
    OntoEL
  </text>
  
  <!-- Tagline -->
  <text x="185" y="145" font-family="Segoe UI, Roboto, Arial, sans-serif" font-size="18" fill="#546E7A" letter-spacing="0.5">
    Neuro-Symbolic • Fuzzy EL++ • Entity Linking
  </text>
  
  <!-- Decorative underline -->
  <rect x="180" y="155" width="350" height="3" fill="url(#grad1)" rx="1.5" opacity="0.4"/>
  
  <!-- Version/Feature badges -->
  <g transform="translate(185, 170)">
    <rect x="0" y="0" width="70" height="20" rx="10" fill="#E8F5E9"/>
    <text x="35" y="14" font-family="Arial" font-size="10" fill="#2E7D32" text-anchor="middle">🧬 Bio-NLP</text>
    
    <rect x="80" y="0" width="65" height="20" rx="10" fill="#E3F2FD"/>
    <text x="112" y="14" font-family="Arial" font-size="10" fill="#1565C0" text-anchor="middle">🧠 Neural</text>
    
    <rect x="155" y="0" width="70" height="20" rx="10" fill="#F3E5F5"/>
    <text x="190" y="14" font-family="Arial" font-size="10" fill="#7B1FA2" text-anchor="middle">⚡ Fuzzy DL</text>
    
    <rect x="235" y="0" width="60" height="20" rx="10" fill="#FFF3E0"/>
    <text x="265" y="14" font-family="Arial" font-size="10" fill="#E65100" text-anchor="middle">🎯 SOTA</text>
  </g>
</svg>
